{
  "accessors": [
    {
      "bufferView": 2,
      "componentType": 5126,
      "count": 5230,
      "max": [
        -1532.4033203125,
        40.3981819152832,
        209.58709716796875
      ],
      "min": [
        -1683.69580078125,
        4.52938985824585,
        125.85050201416016
      ],
      "type": "VEC3"
    },
    {
      "bufferView": 2,
      "byteOffset": 62760,
      "componentType": 5126,
      "count": 5230,
      "max": [
        0.9999528527259827,
        1.0,
        1.0
      ],
      "min": [
        -0.9998500347137451,
        -1.0,
        -0.9998638033866882
      ],
      "type": "VEC3"
    },
    {
      "bufferView": 1,
      "componentType": 5126,
      "count": 5230,
      "max": [
        0.9980469942092896,
        0.99794602394104
      ],
      "min": [
        0.0019529999699443579,
        0.0019529999699443579
      ],
      "type": "VEC2"
    },
    {
      "bufferView": 0,
      "componentType": 5125,
      "count": 16680,
      "type": "SCALAR"
    }
  ],
  "asset": {
    "extras": {
      "author": "tedpermana (https://sketchfab.com/tedpermana)",
      "license": "CC-BY-4.0 (http://creativecommons.org/licenses/by/4.0/)",
      "source": "https://sketchfab.com/3d-models/low-poly-motorcycle-001-38a3b1f8cdb24a049d2430520eb9882a",
      "title": "Low Poly Motorcycle 001"
    },
    "generator": "Sketchfab-12.66.0",
    "version": "2.0"
  },
  "bufferViews": [
    {
      "buffer": 0,
      "byteLength": 66720,
      "name": "floatBufferViews",
      "target": 34963
    },
    {
      "buffer": 0,
      "byteLength": 41840,
      "byteOffset": 66720,
      "byteStride": 8,
      "name": "floatBufferViews",
      "target": 34962
    },
    {
      "buffer": 0,
      "byteLength": 125520,
      "byteOffset": 108560,
      "byteStride": 12,
      "name": "floatBufferViews",
      "target": 34962
    }
  ],
  "buffers": [
    {
      "byteLength": 234080,
      "uri": "scene.bin"
    }
  ],
  "images": [
    {
      "uri": "textures/Moto_001_UNWwire_000000000_baseColor.png"
    },
    {
      "uri": "textures/Moto_001_UNWwire_000000000_metallicRoughness.png"
    }
  ],
  "materials": [
    {
      "doubleSided": true,
      "name": "Moto_001_UNWwire_000000000",
      "occlusionTexture": {
        "index": 1
      },
      "pbrMetallicRoughness": {
        "baseColorTexture": {
          "index": 0
        },
        "metallicRoughnessTexture": {
          "index": 1
        }
      }
    }
  ],
  "meshes": [
    {
      "name": "Object_0",
      "primitives": [
        {
          "attributes": {
            "NORMAL": 1,
            "POSITION": 0,
            "TEXCOORD_0": 2
          },
          "indices": 3,
          "material": 0,
          "mode": 4
        }
      ]
    }
  ],
  "nodes": [
    {
      "children": [
        1
      ],
      "matrix": [
        1.0,
        0.0,
        0.0,
        0.0,
        0.0,
        2.220446049250313e-16,
        -1.0,
        0.0,
        0.0,
        1.0,
        2.220446049250313e-16,
        0.0,
        0.0,
        0.0,
        0.0,
        1.0
      ],
      "name": "Sketchfab_model"
    },
    {
      "children": [
        2
      ],
      "name": "2377998a052441a98b824c2ed6915134.obj.cleaner.materialmerger.gles"
    },
    {
      "mesh": 0,
      "name": "Object_2"
    }
  ],
  "samplers": [
    {
      "magFilter": 9729,
      "minFilter": 9987,
      "wrapS": 10497,
      "wrapT": 10497
    }
  ],
  "scene": 0,
  "scenes": [
    {
      "name": "Sketchfab_Scene",
      "nodes": [
        0
      ]
    }
  ],
  "textures": [
    {
      "sampler": 0,
      "source": 0
    },
    {
      "sampler": 0,
      "source": 1
    }
  ]
}
